HIERARCHY
ROOT root
{
	OFFSET	0	13.1	24.9
	CHANNELS 6  Xposition Yposition Zposition Xrotation Yrotation Zrotation
	JOINT spine_1
	{
		OFFSET	0	9.99999	0
		CHANNELS 3  Xrotation Yrotation Zrotation
		JOINT spine_2
		{
			OFFSET	0	112	-10
			CHANNELS 3  Xrotation Yrotation Zrotation
			JOINT spine_3
			{
				OFFSET	0	206.5	19.3
				CHANNELS 3  Xrotation Yrotation Zrotation
				JOINT spine_4
				{
					OFFSET	0	110.4	14.6
					CHANNELS 3  Xrotation Yrotation Zrotation
					JOINT neck_1
					{
						OFFSET	0	71.8	-50.3
						CHANNELS 3  Xrotation Yrotation Zrotation
						JOINT neck_2
						{
							OFFSET	0	86.2	-25.8
							CHANNELS 3  Xrotation Yrotation Zrotation
							JOINT head_ee
							{
								OFFSET	0	179.8	-8.7
								CHANNELS 3  Xrotation Yrotation Zrotation
								End Site
								{
									OFFSET	1	0	0
								}
							}
						}
					}
					JOINT left_clavicle
					{
						OFFSET	-43.2	22.4	-70.8
						CHANNELS 3  Xrotation Yrotation Zrotation
						JOINT left_shoulder
						{
							OFFSET	-93.9	-5.79999	48.7
							CHANNELS 3  Xrotation Yrotation Zrotation
							JOINT left_elbow
							{
								OFFSET	-291.4	-30.8	15.2
								CHANNELS 3  Xrotation Yrotation Zrotation
								JOINT left_lowarm_twist
								{
									OFFSET	-110.7	-3.89999	13.6
									CHANNELS 3  Xrotation Yrotation Zrotation
									JOINT left_hand
									{
										OFFSET	-110.7	-3.89999	13.6
										CHANNELS 3  Xrotation Yrotation Zrotation
										JOINT left_ee
										{
											OFFSET	-80.8	-5.10001	12.1
											CHANNELS 3  Xrotation Yrotation Zrotation
											End Site
											{
												OFFSET	1	0	0
											}
										}
									}
								}
							}
						}
					}
					JOINT right_clavicle
					{
						OFFSET	43.2	22.4	-70.8
						CHANNELS 3  Xrotation Yrotation Zrotation
						JOINT right_shoulder
						{
							OFFSET	93.9	-5.79999	48.7
							CHANNELS 3  Xrotation Yrotation Zrotation
							JOINT right_elbow
							{
								OFFSET	291.4	-30.8	15.2
								CHANNELS 3  Xrotation Yrotation Zrotation
								JOINT right_lowarm_twist
								{
									OFFSET	110.7	-3.89999	13.6
									CHANNELS 3  Xrotation Yrotation Zrotation
									JOINT right_hand
									{
										OFFSET	110.7	-3.89999	13.6
										CHANNELS 3  Xrotation Yrotation Zrotation
										JOINT right_ee
										{
											OFFSET	80.8	-5.10001	12.1
											CHANNELS 3  Xrotation Yrotation Zrotation
											End Site
											{
												OFFSET	1	0	0
											}
										}
									}
								}
							}
						}
					}
				}
			}
		}
	}
	JOINT left_hip
	{
		OFFSET	-82.8	-127.5	0.300001
		CHANNELS 3  Xrotation Yrotation Zrotation
		JOINT left_knee
		{
			OFFSET	-28.2	-396.7	2.2
			CHANNELS 3  Xrotation Yrotation Zrotation
			JOINT left_ankle
			{
				OFFSET	-11.7	-411.3	35.4
				CHANNELS 3  Xrotation Yrotation Zrotation
				JOINT left_toes
				{
					OFFSET	0	-60	-88.6
					CHANNELS 3  Xrotation Yrotation Zrotation
					JOINT left_foot_ee
					{
						OFFSET	-22.5	-16.5	-42.2
						CHANNELS 3  Xrotation Yrotation Zrotation
						End Site
						{
							OFFSET	1	0	0
						}
					}
				}
			}
		}
	}
	JOINT right_hip
	{
		OFFSET	82.8	-127.5	0.300001
		CHANNELS 3  Xrotation Yrotation Zrotation
		JOINT right_knee
		{
			OFFSET	28.2	-396.7	2.2
			CHANNELS 3  Xrotation Yrotation Zrotation
			JOINT right_ankle
			{
				OFFSET	11.7	-411.3	35.4
				CHANNELS 3  Xrotation Yrotation Zrotation
				JOINT right_toes
				{
					OFFSET	0	-60	-88.6
					CHANNELS 3  Xrotation Yrotation Zrotation
					JOINT right_foot_ee
					{
						OFFSET	22.5	-16.5	-42.2
						CHANNELS 3  Xrotation Yrotation Zrotation
						End Site
						{
							OFFSET	1	0	0
						}
					}
				}
			}
		}
	}
}
MOTION
Frames: 6
Frame Time: 0.02
3574.42 741.953 -1474.73 -87.0491153856 88.3482835274 94.0024731661 -0.254456 -0.47841 -2.77875 -0.25021 -0.300693 -2.80354 -0.232868 0.306777 -2.80288 -0.243804 -0.139554 -2.81615 -7.71159 8.02332 4.77577 -7.66699 11.5653 6.44573 -0.0 0.0 -0.0 6.2647 17.5609 11.7739 13.6227 -12.596 74.8584 2.4616 -50.6379 1.16473 85.0904 -4.43735 -8.87029 -4.30268 28.7455 -12.0659 -0.0 0.0 -0.0 10.4885 -9.3068 -19.8584 -8.09459 -12.0295 -54.4133 0.198756 5.62323 -0.00976111 51.023 1.04302 6.22128 4.77604 -3.48861 -35.3635 0.0 0.0 0.0 7.81741 22.1679 -12.8642 -1.55367 0.0608473 0.230662 15.803 -2.43334 -2.23063 4.85992 -0.0 -0.0 -0.0 0.0 -0.0 18.0984 6.47145 -10.9241 -13.5705 -0.316819 -2.05362 8.83438 -12.311 1.26434 -9.26403 0.0 0.0 0.0 0.0 0.0 
3530.97491417 738.936 -1478.8935612 -177.151471969 85.0514098796 -177.355907403 -0.0736947 -0.222158 -2.45828 -0.070335 -0.0653302 -2.46743 -0.0658781 0.457766 -2.4255 -0.0740812 0.069081 -2.46732 -6.93703 8.26284 2.95654 -6.91904 13.2167 4.62116 -0.0 0.0 -0.0 4.71116 21.6996 9.25471 8.62941 -19.1259 76.3731 2.35109 -49.3428 1.08008 85.1956 -4.44996 -8.87511 -3.32127 28.6876 -6.72823 -0.0 0.0 -0.0 10.6193 -6.52379 -20.4167 -4.78675 -13.6994 -56.2039 0.190698 5.39662 -0.0089874 53.9983 1.26969 6.52759 4.43712 -2.80629 -32.362 0.0 0.0 0.0 6.83908 21.4509 -12.6469 -10.0742 0.281905 1.51837 21.6765 -0.254836 -2.95977 4.72659 -0.0 -0.0 -0.0 0.0 -0.0 11.3414 13.6247 -10.2026 -7.25103 -0.229926 -1.08833 13.8691 -12.344 1.95016 -9.06639 0.0 0.0 0.0 0.0 0.0 
3516.30750902 736.953 -1477.52673043 175.699150453 84.6982371933 -170.664020458 -0.101043 -0.135082 -2.36445 -0.0979324 0.0156047 -2.36825 -0.0971337 0.517211 -2.31117 -0.104558 0.145821 -2.36381 -8.37315 8.86869 3.37051 -8.3773 14.2296 5.312 -0.0 0.0 -0.0 4.15981 23.4397 8.43989 6.83827 -20.2774 76.3608 2.28344 -48.5148 1.02908 85.1531 -4.44486 -8.87316 -3.14368 28.6151 -5.807 -0.0 0.0 -0.0 10.7577 -5.9589 -20.7475 -3.525 -12.1165 -56.6143 0.201579 5.70259 -0.0100397 54.24 1.28879 6.55195 4.35564 -3.17432 -31.8625 0.0 0.0 0.0 6.94413 20.4144 -13.1329 -13.8532 0.318214 2.09698 21.9196 -0.426991 -2.99045 4.67088 -0.0 -0.0 -0.0 0.0 -0.0 9.57921 16.8969 -9.81816 -6.30951 -0.207885 -0.945522 16.6006 -9.48314 2.30224 -9.39563 0.0 0.0 0.0 0.0 0.0 
3516.37320596 736.953 -1478.66103176 174.553647778 85.8132044544 -169.514634199 -0.101043 -0.135082 -2.36445 -0.0979324 0.0156047 -2.36825 -0.0971337 0.517211 -2.31117 -0.104558 0.145821 -2.36381 -8.37315 8.86869 3.37051 -8.3773 14.2296 5.312 -0.0 0.0 -0.0 4.15981 23.4397 8.43989 6.83827 -20.2774 76.3608 2.28344 -48.5148 1.02908 85.1531 -4.44486 -8.87316 -3.14368 28.6151 -5.807 -0.0 0.0 -0.0 10.7577 -5.9589 -20.7475 -3.525 -12.1165 -56.6143 0.201579 5.70259 -0.0100397 54.24 1.28879 6.55195 4.35564 -3.17432 -31.8625 0.0 0.0 0.0 6.94413 20.4144 -13.1329 -13.8532 0.318214 2.09698 21.9196 -0.426991 -2.99045 4.67088 -0.0 -0.0 -0.0 0.0 -0.0 9.57921 16.8969 -9.81816 -6.30951 -0.207885 -0.945522 16.6006 -9.48314 2.30224 -9.39563 0.0 0.0 0.0 0.0 0.0 
3516.44971055 736.953 -1479.66242847 172.877072271 86.796433803 -167.834628237 -0.101043 -0.135082 -2.36445 -0.0979324 0.0156047 -2.36825 -0.0971337 0.517211 -2.31117 -0.104558 0.145821 -2.36381 -8.37315 8.86869 3.37051 -8.3773 14.2296 5.312 -0.0 0.0 -0.0 4.15981 23.4397 8.43989 6.83827 -20.2774 76.3608 2.28344 -48.5148 1.02908 85.1531 -4.44486 -8.87316 -3.14368 28.6151 -5.807 -0.0 0.0 -0.0 10.7577 -5.9589 -20.7475 -3.525 -12.1165 -56.6143 0.201579 5.70259 -0.0100397 54.24 1.28879 6.55195 4.35564 -3.17432 -31.8625 0.0 0.0 0.0 6.94413 20.4144 -13.1329 -13.8532 0.318214 2.09698 21.9196 -0.426991 -2.99045 4.67088 -0.0 -0.0 -0.0 0.0 -0.0 9.57921 16.8969 -9.81816 -6.30951 -0.207885 -0.945522 16.6006 -9.48314 2.30224 -9.39563 0.0 0.0 0.0 0.0 0.0 
3516.58620896 736.953 -1481.06529182 167.497040313 88.1657425149 -162.449784462 -0.101043 -0.135082 -2.36445 -0.0979324 0.0156047 -2.36825 -0.0971337 0.517211 -2.31117 -0.104558 0.145821 -2.36381 -8.37315 8.86869 3.37051 -8.3773 14.2296 5.312 -0.0 0.0 -0.0 4.15981 23.4397 8.43989 6.83827 -20.2774 76.3608 2.28344 -48.5148 1.02908 85.1531 -4.44486 -8.87316 -3.14368 28.6151 -5.807 -0.0 0.0 -0.0 10.7577 -5.9589 -20.7475 -3.525 -12.1165 -56.6143 0.201579 5.70259 -0.0100397 54.24 1.28879 6.55195 4.35564 -3.17432 -31.8625 0.0 0.0 0.0 6.94413 20.4144 -13.1329 -13.8532 0.318214 2.09698 21.9196 -0.426991 -2.99045 4.67088 -0.0 -0.0 -0.0 0.0 -0.0 9.57921 16.8969 -9.81816 -6.30951 -0.207885 -0.945522 16.6006 -9.48314 2.30224 -9.39563 0.0 0.0 0.0 0.0 0.0 
